# xmcd
#
# Track frame offsets: 
#        150
#        10136
#        24927
#        43614
#        59339
#        68581
#        85500
#        103527
#        126092
#        142210
#        162129
#        175963
#        188301
#        209825
#        224655
#
# Disc length: 3220 seconds
#
# Revision: 0
# Processed by: cddbd v1.5.2PL0 Copyright (c) Steve Scherf et al.
# Submitted via: ExactAudioCopy v0.95b4
#
DISCID=cd0c920f
DTITLE=Rythm Billies - Phrenology
DYEAR=2008
DGENRE=Bluegrass
TTITLE0=Oklahoma Rooster
TTITLE1=Silly Bill
TTITLE2=There'll Be A Bit Of Hawaii In The Ozarks
TTITLE3=Liza Jane
TTITLE4=Estill County Ramble
TTITLE5=No Place Like Home
TTITLE6=Bully Of The Town
TTITLE7=Hula Lou
TTITLE8=Grand Picnic/Durang's Hornpipe
TTITLE9=Treat My Daughter Kindly
TTITLE10=Stony Point
TTITLE11=Bluefield Murder
TTITLE12=Under The Chicken Tree
TTITLE13=My Rolling Michigan Hills
TTITLE14=The Glide
EXTD=
EXTT0=
EXTT1=
EXTT2=
EXTT3=
EXTT4=
EXTT5=
EXTT6=
EXTT7=
EXTT8=
EXTT9=
EXTT10=
EXTT11=
EXTT12=
EXTT13=
EXTT14=
PLAYORDER=
